# xmcd
#
# Track frame offsets:
#	150
#	12238
#	24602
#	36776
#	48068
#	58523
#	72312
#	85696
#	98542
#	113669
#	123121
#	132737
#	145637
#	155419
#	172788
#	183394
#	195040
#	207376
#	218473
#	230672
#	239830
#	257933
#
# Disc length: 3577 seconds
#
# Revision: 0
# Processed by: cddbd v1.5.2PL0 Copyright (c) Steve Scherf et al.
# Submitted via: EasyCDDAExtractor 16.0.6.1
#
DISCID=230df716
DTITLE=Various Artist - Country Sunset [Disc 04]
DYEAR=1900
DGENRE=Country
TTITLE0=Johnny Cash - You're the Nearest Thing to Heaven
TTITLE1=Lefty Frizell - I Love You a Thousand Ways
TTITLE2=Faron Young - Sweet Dreams
TTITLE3=James O'gwynn - Talk to Me Oh Lonesome Heart
TTITLE4=Charlie Walker - Wild as a Wildcat
TTITLE5=Don Gibson - Mansion on the Hill
TTITLE6=Ride the River - After Last Night's Storm
TTITLE7=Merle Haggard - Sing Me Back Home
TTITLE8=Conway Twitty - Lost Her After Our Last Date
TTITLE9=Jerry Lee Lewis - One Minute Past Eternity
TTITLE10=Lynn Anderson - Snowbird
TTITLE11=Charlie Rich - The Most Beautiful Girl
TTITLE12=Johnny Paycheck - Mr Lovemaker
TTITLE13=Ed Bruce - My First Taste of Texas
TTITLE14=Bobby Bare - Vampira
TTITLE15=Donna Fargo - The Happiest Girl in the Whole USA
TTITLE16=Kenny Rogers - Reuben James
TTITLE17=Roger Miller - Husbands and Wives
TTITLE18=Moe Bandy - Streets of Laredo
TTITLE19=Frankie Laine - Rawhide
TTITLE20=T. Graham Brown - Don't Go to Strangers
TTITLE21=Bellamy Brothers - Sugar Daddy
EXTD=
EXTT0=
EXTT1=
EXTT2=
EXTT3=
EXTT4=
EXTT5=
EXTT6=
EXTT7=
EXTT8=
EXTT9=
EXTT10=
EXTT11=
EXTT12=
EXTT13=
EXTT14=
EXTT15=
EXTT16=
EXTT17=
EXTT18=
EXTT19=
EXTT20=
EXTT21=
PLAYORDER=
